<svg width="36" height="58" viewBox="0 0 36 58" fill="none" xmlns="http://www.w3.org/2000/svg">
<path d="M11.4847 0H7.09082V2.92925H11.4847V0Z" fill="#878787"/>
<path d="M11.5833 16.4907V3.66153H7.00402V16.4907C7.00402 16.4907 0.5 19.3418 0.5 25.3093V54.4943C0.502802 55.3777 0.849073 56.2247 1.46397 56.8528C2.07886 57.4809 2.91358 57.8401 3.78785 57.8526H14.7873C15.6628 57.8429 16.499 57.4849 17.1143 56.8564C17.73 56.2275 18.0755 55.3788 18.0755 54.4943V25.3083C18.0755 19.3407 11.583 16.4901 11.583 16.4901L11.5833 16.4907ZM4.91155 19.5469C5.46959 19.2379 6.10966 19.1153 6.74106 19.1966C4.5341 20.5104 2.84469 22.5546 1.95842 24.983C2.3051 21.6125 3.83548 20.1508 4.91155 19.5469V19.5469ZM15.3739 45.4102H3.17857V32.3274H15.3739V45.4102Z" fill="#878787"/>
<path d="M35.0149 42.4253C34.8356 42.2264 34.583 42.1117 34.3171 42.108H22.68C22.4121 42.11 22.1578 42.2264 21.9793 42.4281C21.8004 42.6302 21.7142 42.8993 21.7412 43.1692C22.1743 47.694 22.6316 52.3404 23.0648 56.8526V56.987V56.9866C23.1139 57.4758 23.5185 57.849 24.0036 57.8527H32.969C33.4585 57.8551 33.8699 57.4803 33.9194 56.9866C34.112 54.9743 34.3046 52.9498 34.5089 50.8889H34.5093C34.5568 50.7767 34.5855 50.6574 34.5935 50.5353C34.5992 50.4622 34.5992 50.3887 34.5935 50.3156C34.822 47.9375 35.0508 45.5471 35.2793 43.2057C35.3075 42.9191 35.2108 42.6336 35.0146 42.4254L35.0149 42.4253ZM32.7525 49.3155C32.6365 49.2571 32.5241 49.1922 32.4157 49.1203C31.7593 48.6903 30.9946 48.4616 30.2133 48.4616C29.4319 48.4616 28.6673 48.6903 28.0113 49.1203C27.6458 49.3669 27.2167 49.4984 26.7775 49.4984C26.3387 49.4984 25.9096 49.3669 25.5442 49.1203C25.1219 48.8443 24.6525 48.6499 24.1602 48.5474C24.0159 47.0353 23.8592 45.4743 23.7149 44.0227H33.2698C33.0893 45.7789 32.9209 47.5837 32.7524 49.3155L32.7525 49.3155Z" fill="#878787"/>
</svg>
