<svg width="47" height="49" viewBox="0 0 47 49" fill="none" xmlns="http://www.w3.org/2000/svg">
<path d="M1.74717 34.4866C0.627683 35.6345 0.000976562 37.1743 0.000976562 38.7776C0.000976562 40.381 0.627693 41.9212 1.74717 43.069L5.83218 47.2081C6.94962 48.3516 8.48019 48.9975 10.0789 48.9999C11.6826 48.9963 13.218 48.3508 14.343 47.2081L20.7398 40.6322L8.19751 27.8748L1.74717 34.4866Z" fill="#878787"/>
<path d="M38.3343 22.8402L44.7486 16.3003C45.868 15.1524 46.4947 13.6122 46.4947 12.0089C46.4947 10.4055 45.868 8.86531 44.7486 7.71746L37.6891 0.550426C37.3496 0.204074 36.884 0.0101032 36.3989 0.0128984C36.3041 -0.00429945 36.2069 -0.00429945 36.1121 0.0128984C35.7581 0.0824892 35.4334 0.257663 35.1806 0.514826L25.7559 10.1723L38.3343 22.8402Z" fill="#878787"/>
<path d="M11.3321 0.550011C11.0529 0.282844 10.6945 0.113273 10.3106 0.0664718C9.75547 -0.0203169 9.19152 0.158859 8.7876 0.550011L1.7462 7.71705C0.626707 8.8649 0 10.4051 0 12.0085C0 13.6118 0.626717 15.152 1.7462 16.2999L32.2061 47.2082C33.3311 48.3509 34.8665 48.9964 36.4703 49C38.0692 48.9976 39.5998 48.3517 40.717 47.2082L44.7484 43.0692C45.8679 41.9213 46.4946 40.3811 46.4946 38.7778C46.4946 37.1744 45.8679 35.6346 44.7484 34.4867L11.3321 0.550011Z" fill="#878787"/>
<path d="M30.6649 0.0124831H15.8291L23.2469 7.17952L30.6649 0.0124831Z" fill="#878787"/>
</svg>
