<svg width="49" height="48" viewBox="0 0 49 48" fill="none" xmlns="http://www.w3.org/2000/svg">
<path d="M48.9811 26.1735C48.9682 26.0494 48.9526 25.9276 48.9245 25.8084C48.8714 25.5701 48.8003 25.3438 48.7126 25.1336C48.6689 25.0283 48.621 24.9265 48.5698 24.8295C48.5443 24.781 48.5174 24.7336 48.4896 24.6873C48.4619 24.6411 48.4304 24.5956 48.3996 24.5516C48.1512 24.1982 47.8496 23.9193 47.5116 23.7317C47.1735 23.5437 46.7987 23.4459 46.404 23.4459C46.0086 23.4459 45.6303 23.5426 45.2838 23.7042C44.9374 23.8666 44.6233 24.0945 44.3571 24.3666C44.3233 24.4005 44.2917 24.4358 44.2587 24.4712C44.2249 24.5069 44.1922 24.543 44.1603 24.5794C44.0961 24.6527 44.0358 24.7294 43.978 24.8073C43.8633 24.964 43.7611 25.1306 43.6745 25.3058C43.6404 25.3791 43.6031 25.4539 43.5689 25.5298L38.0732 24.937C38.1055 24.5531 38.1325 24.1689 38.1325 23.7771C38.1325 23.2549 38.0987 22.7406 38.0421 22.2335L41.3811 21.941C41.4047 21.9936 41.4203 22.0492 41.4487 22.1C41.5866 22.3538 41.7807 22.5831 41.9923 22.7808C42.4256 23.1737 43.0174 23.4436 43.6635 23.4455C44.3092 23.447 44.8881 23.1621 45.2982 22.6583C45.5083 22.4071 45.6534 22.1037 45.7464 21.7654C45.792 21.5966 45.8266 21.4188 45.8395 21.2357C45.8482 21.053 45.8406 20.865 45.8159 20.674C45.8034 20.5785 45.7875 20.4849 45.7673 20.3932C45.7468 20.3014 45.7255 20.2116 45.6929 20.1255C45.6302 19.9518 45.5546 19.7882 45.4669 19.636C45.3792 19.4841 45.2808 19.3439 45.1706 19.2179C45.0559 19.0927 44.9317 18.9815 44.8011 18.8852C44.539 18.6935 44.2499 18.5634 43.9487 18.504C43.6449 18.4446 43.3258 18.4566 43.0144 18.539C42.7018 18.6213 42.4256 18.766 42.1845 18.9502C41.9406 19.1356 41.734 19.36 41.5741 19.6063C41.4939 19.7292 41.4259 19.8574 41.3709 19.9901C41.3105 20.1232 41.2607 20.2612 41.2262 20.4014C41.2125 20.4563 41.2113 20.5131 41.2022 20.5684L37.8735 21.136C37.5996 19.7176 37.1154 18.3732 36.4446 17.1419L41.4443 14.5057C41.502 14.5632 41.5563 14.6264 41.6159 14.6801C41.7644 14.8095 41.924 14.926 42.0922 15.0283C42.2552 15.1335 42.4242 15.2256 42.6023 15.302C42.9552 15.4561 43.3418 15.5493 43.7163 15.5768C44.0946 15.602 44.4802 15.5542 44.8475 15.4099C45.2144 15.2655 45.5281 15.0365 45.7754 14.735C46.0268 14.432 46.1936 14.0655 46.2874 13.6463C46.3337 13.4373 46.3615 13.2151 46.3656 12.9854C46.3653 12.7583 46.3432 12.523 46.3003 12.2831C46.2213 11.7996 46.0257 11.3147 45.7518 10.8458C45.7169 10.7875 45.6831 10.7289 45.6447 10.674C45.6067 10.6191 45.5672 10.5646 45.5277 10.5116C45.4484 10.4055 45.3648 10.304 45.2793 10.207C45.1939 10.11 45.1058 10.0179 45.0154 9.9307C44.9702 9.88709 44.9246 9.84461 44.8782 9.80363C44.8304 9.76378 44.7818 9.72506 44.7335 9.68784C44.5387 9.53859 44.3378 9.40964 44.1345 9.30361C44.0327 9.25023 43.931 9.20286 43.8284 9.16075C43.7251 9.11939 43.6188 9.08631 43.5143 9.05736C43.0957 8.9427 42.684 8.91976 42.3038 8.99007C42.1143 9.02466 41.9282 9.08556 41.7542 9.16752C41.5799 9.24986 41.4162 9.354 41.2654 9.47994C41.1138 9.60551 40.9824 9.74687 40.8689 9.89913C40.7549 10.0518 40.6615 10.2138 40.5802 10.3875C40.4195 10.733 40.3261 11.1086 40.2976 11.488C40.29 11.5834 40.2885 11.6778 40.2877 11.7741C40.2862 11.8711 40.2889 11.9688 40.2953 12.0658C40.3082 12.2598 40.3382 12.4523 40.3853 12.6421C40.3975 12.6895 40.41 12.7365 40.4241 12.7835C40.4324 12.8158 40.4416 12.8482 40.4507 12.8805L35.7443 15.9945C35.2407 15.2501 34.6668 14.5572 34.0317 13.9226L36.444 11.5248C36.4972 11.5492 36.5485 11.5793 36.6009 11.6019C36.8683 11.7109 37.1611 11.7673 37.46 11.7759C38.0438 11.8034 38.6705 11.6353 39.1658 11.2252C39.6615 10.8154 39.9209 10.227 39.9103 9.57659C39.8993 9.25815 39.8176 8.92882 39.6718 8.60741C39.6011 8.445 39.5031 8.29537 39.3933 8.14762C39.2828 8.00063 39.1571 7.85926 39.0162 7.7273C38.947 7.66001 38.8707 7.60173 38.7947 7.5461C38.718 7.49045 38.6402 7.43932 38.5612 7.39158C38.4028 7.29683 38.2398 7.21751 38.0761 7.1551C37.7411 7.03743 37.3993 6.99081 37.0775 7.00622C36.997 7.01036 36.9176 7.01863 36.8397 7.03104C36.7604 7.04495 36.6825 7.06299 36.6065 7.0848C36.4546 7.12841 36.3099 7.18818 36.1735 7.26263C35.902 7.41151 35.6676 7.61978 35.4819 7.88145C35.2962 8.14273 35.1765 8.43223 35.1116 8.72659C35.0793 8.87358 35.061 9.02246 35.0553 9.16947C35.0527 9.24315 35.0531 9.31608 35.0569 9.3894C35.0595 9.46384 35.0652 9.53828 35.0736 9.61159C35.1078 9.90597 35.1932 10.1849 35.3258 10.4406C35.3505 10.4917 35.3858 10.5372 35.4139 10.5861L33.2072 13.1719C32.1232 12.247 30.9016 11.4778 29.5688 10.9097L31.6639 5.78319C31.746 5.78958 31.828 5.80575 31.9101 5.8065C31.9602 5.80612 32.0096 5.8065 32.0582 5.80688C32.1072 5.80688 32.1562 5.80575 32.2052 5.80349C32.3032 5.79936 32.4008 5.79108 32.4976 5.77868C32.6914 5.75349 32.8832 5.71251 33.0704 5.65575C33.44 5.55236 33.7909 5.38882 34.1001 5.16437C34.4082 4.94031 34.674 4.65684 34.8613 4.31208C35.0493 3.96771 35.1401 3.59514 35.1329 3.21057C35.1257 2.82634 35.0212 2.42858 34.8226 2.04476C34.7211 1.85791 34.5962 1.67406 34.45 1.49662C34.377 1.40827 34.2984 1.32105 34.2148 1.23646C34.1731 1.19398 34.1298 1.15225 34.0857 1.11089C34.0416 1.06878 33.9957 1.02893 33.9478 0.991337C33.7572 0.838704 33.5475 0.696589 33.3211 0.568392C33.2079 0.504104 33.0909 0.443198 32.9694 0.387183C32.8467 0.334926 32.7199 0.286801 32.5903 0.242817C32.3305 0.155596 32.0707 0.0898082 31.8144 0.0454396C31.5557 0.00972434 31.3008 -0.00418597 31.0555 0.00107667C30.5655 0.00596404 30.1036 0.119505 29.709 0.292062C29.5115 0.379283 29.3307 0.481162 29.1677 0.601467C29.0044 0.724775 28.8601 0.862751 28.7366 1.01276C28.4893 1.31315 28.3272 1.66316 28.2592 2.04815C28.1912 2.43315 28.2223 2.81736 28.3245 3.18018C28.3758 3.36139 28.4449 3.53733 28.5296 3.70576C28.6136 3.87719 28.7119 4.04524 28.8244 4.20164C29.0481 4.51706 29.3269 4.78587 29.641 5.03062C29.7059 5.07949 29.7807 5.11596 29.8495 5.15995L28.2937 10.4388C27.4372 10.1677 26.5454 9.97897 25.6262 9.87407L25.8978 6.683C25.9544 6.66796 26.0125 6.66081 26.0683 6.64164C26.2073 6.59051 26.3399 6.53938 26.469 6.47096C26.5974 6.40367 26.7212 6.32321 26.8382 6.23223C26.9552 6.14125 27.0657 6.03974 27.1675 5.92808C27.2689 5.8198 27.362 5.70326 27.444 5.57731C27.6085 5.32505 27.73 5.03744 27.7859 4.7224C27.8421 4.40773 27.825 4.09493 27.7395 3.79867C27.697 3.65054 27.637 3.50618 27.561 3.36858C27.4843 3.23436 27.3912 3.10729 27.2834 2.98736C27.1755 2.86818 27.0524 2.75728 26.9165 2.65652C26.7805 2.55689 26.6316 2.46178 26.4709 2.39335C26.3103 2.3223 26.139 2.26364 25.9589 2.21929C25.8689 2.1971 25.777 2.17868 25.6836 2.16364C25.6368 2.1565 25.5894 2.14898 25.5419 2.14522C25.494 2.14184 25.4462 2.13996 25.3976 2.13808C25.2042 2.13282 25.0143 2.14409 24.8312 2.17041C24.7397 2.18395 24.6504 2.20049 24.5627 2.22117C24.519 2.23207 24.4757 2.24222 24.4332 2.25575C24.3907 2.26966 24.3481 2.28433 24.3067 2.30012C23.9747 2.42456 23.6823 2.60201 23.4464 2.81818C23.3875 2.87081 23.3321 2.93097 23.2804 2.99225C23.2288 3.05315 23.1809 3.11632 23.1369 3.18135C23.0487 3.31106 22.9762 3.44865 22.9207 3.59189C22.8091 3.87799 22.765 4.18702 22.7927 4.50546C22.8205 4.82389 22.9162 5.12202 23.0575 5.38932C23.1281 5.52316 23.2105 5.64873 23.3021 5.76566C23.3476 5.82393 23.3963 5.87995 23.4464 5.93334C23.4965 5.98672 23.549 6.03672 23.6033 6.08898C23.8209 6.29313 24.0678 6.45666 24.3352 6.5672C24.3682 6.58111 24.402 6.59427 24.4366 6.60592C24.4567 6.61344 24.4776 6.62096 24.4978 6.62848L24.489 9.79703C24.3192 9.79102 24.1525 9.77184 23.9808 9.77184C22.6472 9.77184 21.3615 9.96696 20.1389 10.3087L18.5052 5.32653C18.5721 5.27916 18.645 5.2393 18.7084 5.18705C19.0203 4.95058 19.2861 4.65846 19.5 4.33476C19.7161 4.02159 19.879 3.6712 19.9698 3.30312C20.0606 2.93506 20.08 2.54858 19.9998 2.16551C19.9204 1.78241 19.7476 1.43916 19.4924 1.14898C19.2375 0.859119 18.8987 0.623022 18.4969 0.453835C18.0977 0.294811 17.637 0.209836 17.1416 0.20232C16.8967 0.207207 16.6441 0.232396 16.3873 0.279015C16.2589 0.302324 16.1298 0.330896 16.0006 0.364732C15.9357 0.380898 15.8715 0.4012 15.8081 0.423381C15.7443 0.445562 15.6801 0.468496 15.6163 0.493309C15.361 0.591805 15.1198 0.707981 14.8946 0.83768C14.838 0.869636 14.7837 0.903848 14.7305 0.94069C14.6777 0.976782 14.6253 1.01362 14.5748 1.05122C14.473 1.12678 14.3761 1.20499 14.2838 1.28581C14.1919 1.36664 14.1045 1.44898 14.0225 1.53431C13.9405 1.61966 13.863 1.70499 13.7942 1.79899C13.6548 1.98283 13.5371 2.17231 13.4425 2.3648C13.3479 2.55728 13.2765 2.75165 13.2291 2.94565C13.1839 3.1434 13.1626 3.34116 13.166 3.53477C13.1721 3.92237 13.275 4.29307 13.4725 4.63215C13.6708 4.9705 13.9435 5.24495 14.2572 5.45736C14.4141 5.56339 14.5812 5.65399 14.7556 5.72955C14.9318 5.80888 15.1156 5.87354 15.3033 5.92242C15.4913 5.97091 15.6827 6.00437 15.876 6.02091C15.9717 6.02806 16.0709 6.0367 16.17 6.03971C16.2691 6.04309 16.3683 6.04234 16.4674 6.03745C16.5502 6.03332 16.633 6.02392 16.7158 6.01377L18.8189 10.7471C17.9423 11.0877 17.1085 11.5099 16.3277 12.0087L14.6724 9.68347C14.7062 9.63609 14.7465 9.59361 14.7765 9.54399C14.8141 9.48196 14.8479 9.41617 14.8806 9.35225C14.9136 9.28871 14.9444 9.2233 14.9713 9.15676C15.0264 9.02292 15.069 8.88344 15.0997 8.73945C15.1301 8.59546 15.1491 8.44733 15.1552 8.29695C15.1624 8.1492 15.1578 8.00108 15.1388 7.85182C15.1009 7.55369 15.007 7.25631 14.8452 6.97923C14.6834 6.70216 14.4685 6.47358 14.2102 6.30139C14.0818 6.21529 13.9417 6.14236 13.7943 6.08596C13.6484 6.0322 13.4942 5.9931 13.3343 5.97055C13.1744 5.94799 13.0077 5.94047 12.8383 5.94949C12.7532 5.95363 12.6677 5.96303 12.5819 5.97543C12.4964 5.98897 12.4125 6.00927 12.327 6.03258C12.1572 6.07957 11.9871 6.14311 11.8207 6.22319C11.7375 6.26304 11.6547 6.3074 11.5731 6.35515C11.4929 6.40515 11.4158 6.46117 11.3391 6.52019C11.0349 6.75855 10.7792 7.02999 10.6083 7.34014C10.5206 7.49278 10.4488 7.6488 10.3945 7.80633C10.3671 7.8849 10.344 7.96423 10.3246 8.0428C10.3071 8.12363 10.2946 8.20446 10.2859 8.28491C10.2152 8.92967 10.4203 9.53686 10.8776 9.98796C11.3349 10.4391 11.946 10.6628 12.5326 10.688C12.6062 10.6914 12.6792 10.6906 12.7521 10.6876C12.8265 10.6861 12.9006 10.6816 12.9735 10.6741C13.1201 10.6583 13.2637 10.6305 13.4031 10.5884C13.4563 10.5711 13.5087 10.5459 13.5623 10.5252L15.377 12.6757C14.1787 13.5877 13.1239 14.6743 12.2723 15.9145L8.14287 13.3542C8.16528 13.2749 8.18655 13.1952 8.20213 13.1147C8.22188 13.0181 8.23631 12.9218 8.24733 12.8241C8.25834 12.7271 8.26366 12.6286 8.27087 12.5335C8.28227 12.3418 8.27619 12.1493 8.25492 11.9583C8.23327 11.7677 8.19491 11.5782 8.14097 11.394C8.09046 11.2124 8.02399 11.0361 7.94043 10.8669C7.77254 10.5289 7.5382 10.2221 7.22826 9.97962C6.91832 9.73713 6.56167 9.58224 6.17579 9.52096C5.98322 9.49013 5.78229 9.48224 5.57795 9.49765C5.37703 9.51607 5.1723 9.55743 4.9672 9.62284C4.76134 9.68751 4.55509 9.77548 4.35151 9.88526C4.2482 9.93902 4.15096 10.0022 4.05411 10.0702C3.95725 10.1383 3.86192 10.2116 3.76772 10.2894C3.67391 10.3676 3.58161 10.4511 3.4916 10.5394C3.40272 10.6285 3.31118 10.7195 3.23255 10.8214C3.07037 11.0218 2.91957 11.2413 2.78398 11.4767C2.64458 11.7102 2.54203 11.9557 2.45847 12.2C2.37529 12.4448 2.31148 12.6873 2.2735 12.9271C2.24083 13.1696 2.22868 13.4072 2.23817 13.6354C2.24235 13.7497 2.25223 13.8614 2.26704 13.97C2.28185 14.0794 2.30008 14.1851 2.32895 14.2903C2.4391 14.708 2.62522 15.0734 2.87779 15.3656C3.12923 15.6577 3.44829 15.8765 3.82089 16.0107C4.19122 16.1438 4.5794 16.181 4.96146 16.146C5.34318 16.1103 5.71768 16.0028 6.06254 15.8366C6.14762 15.7945 6.23613 15.7509 6.32159 15.7035C6.40705 15.6562 6.49023 15.6054 6.57189 15.5509C6.73408 15.4426 6.88714 15.3201 7.02881 15.1851C7.08883 15.1306 7.13972 15.0648 7.19746 15.0062L11.5274 17.1277C11.0751 17.9559 10.7097 18.8368 10.432 19.7552L8.0224 19.1236C8.01822 19.0661 8.01974 19.0078 8.01252 18.9511C7.99201 18.8089 7.95707 18.668 7.90921 18.53C7.88528 18.4608 7.85793 18.3924 7.82793 18.3251C7.8002 18.2582 7.76981 18.1931 7.73601 18.1285C7.46558 17.6138 7.00295 17.1601 6.39641 16.9394C5.79021 16.7191 5.14714 16.7912 4.5858 17.1273C4.51591 17.1694 4.44678 17.2146 4.38069 17.2649C4.3165 17.3157 4.25383 17.3695 4.19344 17.4277C4.07265 17.5435 3.95985 17.6747 3.85692 17.818C3.64573 18.1029 3.50368 18.4473 3.41594 18.8222C3.39429 18.9158 3.37682 19.0098 3.36352 19.1023C3.34985 19.1951 3.34833 19.2887 3.34605 19.3805C3.34453 19.5643 3.35858 19.7444 3.38745 19.9166C3.44025 20.2606 3.57965 20.579 3.75702 20.8463C3.84628 20.9805 3.94769 21.1024 4.05974 21.2102C4.17141 21.3181 4.29295 21.4125 4.42855 21.4911C4.69709 21.649 4.99829 21.7456 5.32 21.7731C5.64171 21.8005 5.95392 21.7584 6.24146 21.6663C6.38427 21.62 6.52633 21.5618 6.66078 21.4926C6.79524 21.4234 6.9221 21.3437 7.04022 21.2554C7.27799 21.0779 7.4698 20.8636 7.63921 20.6249C7.67149 20.5779 7.692 20.5253 7.72049 20.476L10.1354 20.902C9.93943 21.8306 9.83421 22.7915 9.83421 23.778C9.83421 24.351 9.87941 24.9127 9.94702 25.4672L5.4081 26.0924C5.37392 26.0176 5.33821 25.9432 5.29871 25.871C5.20452 25.6992 5.09133 25.5356 4.97244 25.3822C4.85697 25.2281 4.72859 25.0841 4.58844 24.9522C4.30927 24.6875 3.97959 24.4691 3.63737 24.3168C3.29059 24.1649 2.91191 24.0796 2.51693 24.0908C2.1223 24.1021 1.74817 24.2104 1.41166 24.4081C1.0702 24.6059 0.786094 24.8931 0.552886 25.2537C0.437041 25.4337 0.335246 25.6326 0.249408 25.8462C0.167746 26.0597 0.109632 26.2875 0.0663335 26.527C0.0450634 26.6466 0.0287313 26.7695 0.0173363 26.8947C0.00708097 27.0199 -0.00393403 27.1473 0.00138374 27.2759C0.00746091 27.5331 0.034428 27.797 0.0834256 28.0639C0.108874 28.197 0.134701 28.3286 0.173824 28.4553C0.212566 28.582 0.255865 28.706 0.30334 28.826C0.397917 29.0662 0.509206 29.2925 0.633783 29.5012C0.897756 29.9151 1.21605 30.258 1.56055 30.5114C1.9172 30.7614 2.29778 30.9219 2.68098 30.9851C3.06422 31.0482 3.45051 31.0133 3.82155 30.8794C4.19301 30.7452 4.51472 30.5268 4.78364 30.2568C5.05255 29.9869 5.26829 29.6662 5.42401 29.3196C5.5919 28.9692 5.70053 28.5925 5.74192 28.2049C5.75332 28.1244 5.74952 28.0421 5.75484 27.9609L10.1965 26.8917C10.4153 27.844 10.7336 28.7564 11.1373 29.6238L9.06693 30.5862C9.0259 30.5441 8.98489 30.502 8.94044 30.4633C8.72432 30.2716 8.46111 30.1231 8.19447 30.0088C7.92289 29.8971 7.62473 29.8298 7.31822 29.8159C7.01094 29.8024 6.69797 29.8418 6.39524 29.9505C6.09101 30.0599 5.82627 30.2298 5.61319 30.4498C5.39973 30.6697 5.2364 30.9404 5.13119 31.2464C5.02105 31.5547 4.99142 31.8889 5.02029 32.2393C5.02788 32.3265 5.03928 32.4148 5.05523 32.5032C5.07118 32.5923 5.09018 32.681 5.11904 32.7678C5.17412 32.9423 5.24553 33.1171 5.33402 33.2885C5.5057 33.634 5.756 33.9171 6.02302 34.1446C6.28699 34.3747 6.60035 34.5296 6.90952 34.622C7.5275 34.81 8.18271 34.7051 8.70875 34.3378C9.23861 33.9686 9.55121 33.422 9.68947 32.8472C9.75707 32.56 9.76467 32.2731 9.73884 31.9829C9.73352 31.9261 9.71415 31.8724 9.7039 31.8175L11.6847 30.6903C12.4584 32.0362 13.452 33.2371 14.6158 34.2567L11.5806 37.5903C11.5495 37.5767 11.5187 37.5632 11.488 37.5497C11.4428 37.5294 11.3976 37.5098 11.352 37.4914C11.1689 37.4181 10.9805 37.3617 10.7891 37.3207C10.6934 37.3004 10.5965 37.2843 10.4989 37.2719C10.4032 37.2579 10.3082 37.2467 10.2117 37.2399C9.82774 37.2136 9.43918 37.2512 9.0704 37.3591C8.7035 37.4658 8.36127 37.6388 8.06538 37.8997C7.7714 38.1591 7.55262 38.4836 7.42614 38.8471C7.30156 39.2099 7.2651 39.6156 7.31941 40.0419C7.33308 40.1487 7.35207 40.2569 7.37752 40.3648C7.40487 40.4708 7.43791 40.5776 7.47589 40.6851C7.55338 40.8991 7.65289 41.1148 7.77367 41.3265C7.80406 41.3799 7.83559 41.4325 7.86825 41.4848C7.90206 41.5367 7.93814 41.5867 7.97499 41.6374C8.04905 41.7382 8.12843 41.8378 8.21275 41.9356C8.29708 42.0329 8.3871 42.1284 8.48129 42.2217C8.57586 42.3149 8.67386 42.4066 8.78249 42.489C9.21169 42.8243 9.66748 43.0852 10.1388 43.2322C10.3724 43.3089 10.6045 43.3638 10.8309 43.3965C11.061 43.4247 11.2866 43.4292 11.5024 43.4142C11.9346 43.383 12.3258 43.2721 12.6639 43.0691C13.0004 42.8706 13.2746 42.5965 13.4725 42.2578C13.67 41.9194 13.7741 41.5483 13.8037 41.1739C13.8303 40.8032 13.7934 40.4118 13.6905 40.0438C13.6392 39.8588 13.5716 39.6795 13.4907 39.5046C13.4129 39.3253 13.3198 39.152 13.2115 38.9884C13.1663 38.9223 13.1101 38.8603 13.0611 38.7948L15.761 35.1616C16.5495 35.7199 17.3946 36.2041 18.2917 36.5948L17.2984 38.7114C17.2403 38.7065 17.183 38.693 17.1241 38.6926C17.05 38.693 16.9782 38.6926 16.9057 38.696C16.8331 38.6994 16.761 38.7061 16.6888 38.7159C16.5445 38.7358 16.4001 38.7697 16.2585 38.8155C15.9732 38.911 15.7051 39.0404 15.4624 39.2223C15.22 39.4039 15.0054 39.6329 14.8436 39.9096C14.6818 40.1859 14.5888 40.4848 14.5663 40.7912C14.5439 41.0968 14.5899 41.4164 14.7122 41.7096C14.7722 41.8578 14.8493 42.0033 14.9424 42.1439C14.9887 42.2138 15.0392 42.283 15.0939 42.3503C15.1482 42.4176 15.206 42.4845 15.2698 42.5439C15.3963 42.6653 15.5372 42.7785 15.6914 42.8811C15.7681 42.9322 15.8486 42.9807 15.9314 43.0266C15.9728 43.0491 16.0154 43.0713 16.0583 43.0928C16.102 43.1123 16.1464 43.1311 16.1916 43.1488C16.3724 43.2198 16.5547 43.274 16.7363 43.3112C16.9175 43.3484 17.0967 43.3717 17.276 43.3668C17.6323 43.3627 17.9688 43.2973 18.2655 43.1728C18.8667 42.9078 19.2964 42.4258 19.462 41.8077C19.6276 41.19 19.5163 40.5569 19.2451 40.0453C19.1106 39.7806 18.9359 39.5419 18.7236 39.3471C18.6818 39.3107 18.6336 39.2776 18.5903 39.2415L19.4141 37.0215C20.8365 37.5016 22.3543 37.7746 23.9401 37.7794L23.7768 42.4777C23.6978 42.4999 23.6149 42.5123 23.5378 42.5397C23.444 42.5755 23.3521 42.6048 23.2617 42.6427C23.1713 42.68 23.0832 42.7209 22.9958 42.7649C22.8226 42.854 22.657 42.9578 22.5009 43.0743C22.4231 43.1337 22.3475 43.192 22.2749 43.2533C22.2024 43.3146 22.1329 43.3792 22.0657 43.4469C21.9323 43.5822 21.8108 43.7292 21.7052 43.8868C21.4933 44.2014 21.3432 44.5579 21.2866 44.9455C21.2301 45.3323 21.2741 45.7139 21.4139 46.0737C21.4842 46.2531 21.578 46.4271 21.6942 46.5937C21.7523 46.6768 21.8161 46.758 21.8852 46.8369C21.9544 46.9162 22.0288 46.9926 22.109 47.0621C22.2685 47.2035 22.4493 47.3339 22.6468 47.4508C22.7459 47.5091 22.8492 47.5644 22.9571 47.6159C23.065 47.6666 23.1759 47.7174 23.2913 47.755C23.5215 47.8336 23.7669 47.8963 24.0221 47.94C24.1501 47.9614 24.2804 47.9787 24.4126 47.9911C24.5448 48.0009 24.6792 48.0012 24.816 47.9986C25.0883 47.9926 25.3538 47.9659 25.6083 47.92C25.7351 47.8997 25.8597 47.8633 25.9812 47.8283C26.102 47.7922 26.2201 47.7512 26.3341 47.7069C26.5624 47.617 26.7758 47.5144 26.9707 47.3933C27.1652 47.2674 27.3414 47.1287 27.4967 46.9798C27.8078 46.6816 28.0353 46.3482 28.1633 45.9775C28.2925 45.6109 28.3244 45.2267 28.2564 44.8417C28.1884 44.4563 28.027 44.1067 27.8067 43.8011C27.5868 43.5 27.3042 43.2244 26.9863 43.0067C26.8271 42.8973 26.6585 42.8018 26.483 42.721C26.3071 42.6356 26.1229 42.5593 25.9342 42.5022C25.8551 42.4778 25.7743 42.4586 25.693 42.4402L25.3876 37.7122C26.3546 37.6174 27.2939 37.4279 28.1941 37.1505L28.8861 39.6909C28.8383 39.7243 28.7858 39.7506 28.7406 39.7878C28.512 39.963 28.3149 40.1796 28.1576 40.4315C28.1185 40.4939 28.0813 40.5593 28.0471 40.6255C28.0129 40.6924 27.9806 40.7563 27.9514 40.8244C27.8933 40.9597 27.8458 41.1018 27.812 41.2484C27.7444 41.5417 27.7288 41.8537 27.7842 42.1691C27.8397 42.4838 27.9624 42.7718 28.1447 43.0207C28.2355 43.1451 28.3414 43.2602 28.4603 43.3639C28.5196 43.415 28.583 43.4662 28.6483 43.5102C28.7137 43.5538 28.7824 43.5947 28.8534 43.6323C29.1383 43.7823 29.4688 43.8831 29.8228 43.9181C29.9982 43.9301 30.1798 43.9267 30.3644 43.9068C30.4563 43.8966 30.5494 43.8831 30.6428 43.8647C30.6895 43.8557 30.7359 43.8451 30.7826 43.8339C30.8293 43.823 30.8756 43.8102 30.922 43.7944C31.1066 43.7335 31.2813 43.6579 31.4442 43.5707C31.5259 43.5271 31.6041 43.4801 31.6793 43.4312C31.7549 43.3823 31.8271 43.3305 31.8939 43.2718C32.164 43.0417 32.3778 42.7756 32.5252 42.4921C32.6699 42.2034 32.7459 41.8921 32.7512 41.5868C32.7565 41.28 32.6912 40.9751 32.5545 40.6856C32.4177 40.3961 32.2244 40.1484 31.9984 39.945C31.7724 39.7412 31.5152 39.5856 31.2433 39.4736C30.9683 39.3555 30.6796 39.2856 30.391 39.2724C30.3336 39.2709 30.2755 39.2698 30.2174 39.2687L29.2994 36.7501C30.7032 36.1858 31.9931 35.4061 33.1295 34.4497L36.2942 38.4543C36.2475 38.5213 36.1917 38.5825 36.1507 38.6528C36.0515 38.8254 35.9585 38.9935 35.8833 39.1724C35.8081 39.3502 35.7481 39.5345 35.7036 39.7228C35.6611 39.9131 35.6269 40.0969 35.6132 40.286C35.5984 40.4747 35.6011 40.6642 35.6219 40.8518C35.6645 41.2274 35.7803 41.5962 35.9877 41.9286C36.1959 42.2613 36.4773 42.5256 36.818 42.7117C36.9886 42.8049 37.1735 42.8786 37.3707 42.932C37.5674 42.9846 37.779 43.0211 37.992 43.0256C38.2066 43.0328 38.43 43.0181 38.6579 42.982C38.8854 42.9455 39.1213 42.891 39.3484 42.8027C39.5771 42.717 39.8068 42.6091 40.0325 42.4805C40.0891 42.4482 40.1453 42.4147 40.2007 42.3801C40.2558 42.3444 40.309 42.3057 40.3629 42.2669C40.47 42.1887 40.5752 42.1053 40.6786 42.0169C40.7819 41.9286 40.8806 41.8368 40.9737 41.7432C41.0204 41.6962 41.0664 41.6489 41.1104 41.6011C41.1533 41.5515 41.1947 41.5015 41.235 41.4507C41.3956 41.2481 41.5362 41.0391 41.6547 40.827C41.7755 40.6172 41.8643 40.3954 41.9335 40.177C42.0022 39.9586 42.0482 39.742 42.0725 39.5307C42.0979 39.3209 42.0926 39.1097 42.0683 38.9093C42.0433 38.7082 41.9958 38.5164 41.9267 38.3363C41.7888 37.9758 41.5651 37.6622 41.2623 37.4104C40.9596 37.1588 40.6079 36.9923 40.2388 36.8968C40.0542 36.8494 39.8646 36.8194 39.674 36.807C39.4833 36.7942 39.2937 36.7998 39.0974 36.8145C38.9029 36.8306 38.7103 36.863 38.5212 36.9115C38.3324 36.9596 38.1497 37.0261 37.9636 37.0983C37.888 37.1291 37.8181 37.1743 37.7448 37.2111L34.1547 33.4948C34.8012 32.8324 35.3789 32.1064 35.8837 31.3282L38.395 33.0636C38.3791 33.1192 38.3548 33.1718 38.3434 33.2286C38.3145 33.37 38.2993 33.5147 38.297 33.6613C38.291 33.8053 38.297 33.9497 38.3168 34.0948C38.3559 34.3847 38.4463 34.6749 38.5872 34.9448C38.7262 35.2125 38.915 35.4595 39.1627 35.6659C39.4092 35.8712 39.6929 36.0155 39.9937 36.09C40.2923 36.1629 40.6094 36.1674 40.9285 36.1039C41.088 36.0719 41.2487 36.0242 41.4048 35.9588C41.5578 35.8903 41.7075 35.8058 41.8522 35.705C41.9969 35.6046 42.1363 35.4885 42.2677 35.358C42.3934 35.2242 42.5097 35.0745 42.6141 34.9129C42.6665 34.832 42.7148 34.7501 42.7588 34.667C42.8025 34.5835 42.8451 34.5016 42.8754 34.4143C42.9404 34.2418 42.9886 34.0677 43.0201 33.8959C43.0513 33.7233 43.0688 33.5542 43.0642 33.3865C43.0577 33.2177 43.0353 33.0538 42.9974 32.897C42.921 32.5838 42.7854 32.3007 42.5917 32.0631C42.3946 31.8233 42.145 31.6304 41.8522 31.4951C41.5593 31.3597 41.2521 31.2936 40.9505 31.2823C40.6444 31.2695 40.339 31.3097 40.0568 31.3958C39.9151 31.4391 39.7795 31.4939 39.6511 31.5601C39.5204 31.6248 39.3913 31.6981 39.2743 31.7838C39.228 31.8173 39.1904 31.8597 39.1475 31.897L36.4685 30.3529C37.145 29.0972 37.6254 27.7261 37.8898 26.2787L43.27 27.4058C43.2772 27.4867 43.2776 27.5697 43.2879 27.6491C43.3171 27.8427 43.3635 28.0333 43.4258 28.2186C43.4584 28.3119 43.4869 28.4013 43.5226 28.4908C43.5579 28.5799 43.5967 28.6675 43.6396 28.7532C43.7251 28.9247 43.8253 29.0897 43.9389 29.2439C44.0528 29.3984 44.1808 29.5435 44.3157 29.6728C44.5884 29.933 44.9147 30.1416 45.29 30.2642C45.6652 30.3871 46.0546 30.4112 46.4401 30.3379C46.6345 30.3018 46.8214 30.2398 47.0041 30.154C47.1872 30.0683 47.3661 29.9593 47.5381 29.8285C47.6244 29.7634 47.7087 29.692 47.7903 29.6161C47.8716 29.5401 47.9548 29.4593 48.0266 29.3721C48.1736 29.198 48.3107 29.0033 48.4338 28.792C48.6886 28.3709 48.8508 27.8743 48.9465 27.3404C48.9579 27.2735 48.9701 27.2073 48.9765 27.1412C48.983 27.0742 48.9879 27.0081 48.9917 26.9423C48.9993 26.8103 49.0016 26.6799 48.9989 26.5509C49.0012 26.425 48.9936 26.2983 48.9811 26.1738L48.9811 26.1735Z" fill="white"/>
</svg>
