<svg width="95" height="96" viewBox="0 0 95 96" fill="none" xmlns="http://www.w3.org/2000/svg">
<rect x="0.740234" y="1.44885" width="93.5827" height="93.5827" rx="9.5" fill="#F5F5F5" stroke="#989494"/>
<path d="M71 32.2138C70.9835 33.9237 70.3433 35.5694 69.1994 36.8422C68.0551 38.1148 66.4854 38.9272 64.7843 39.1268C63.0833 39.3268 61.3677 38.9001 59.9592 37.9273L55.4053 42.4742C59.2167 47.2733 55.9992 54.896 49.9458 55.5955V61.7016C56.5641 63.1704 55.6158 72.8958 48.7701 73C41.9181 72.8935 40.9791 63.1573 47.6038 61.6986L47.6042 55.5968C41.5339 54.9023 38.3168 47.2526 42.1497 42.4555L37.844 38.156C36.252 39.1957 34.2463 39.3762 32.4939 38.6379C30.7411 37.8992 29.4713 36.3384 29.1063 34.4742C28.7413 32.61 29.329 30.6868 30.674 29.3437C32.0191 28.0006 33.9456 27.4133 35.8124 27.7778C37.6793 28.1423 39.2424 29.4102 39.9817 31.1601C40.7215 32.9104 40.5408 34.9131 39.4999 36.5028L43.8056 40.8023L43.8052 40.8019C45.2436 39.7328 46.9894 39.1565 48.7821 39.1592C50.5749 39.1616 52.3191 39.7429 53.7543 40.8163L58.2984 36.2792C56.9964 34.4616 56.6424 32.132 57.3461 30.0106C58.0495 27.8893 59.7262 26.231 61.8573 25.549C63.9884 24.8667 66.3178 25.2425 68.1251 26.5602C69.9328 27.8778 71.0011 29.9789 71 32.2138L71 32.2138ZM48.77 30.774C49.9723 30.7599 51.0775 30.1116 51.6749 29.0691C52.2724 28.0271 52.2724 26.7469 51.6749 25.7045C51.0775 24.6624 49.9723 24.0141 48.7696 24C47.5673 24.0141 46.4621 24.6624 45.8646 25.7049C45.2676 26.7469 45.2676 28.0271 45.8646 29.0695C46.4621 30.1116 47.5673 30.7603 48.77 30.774ZM35.8906 52.0599H35.8902C34.6879 52.0736 33.5819 52.7218 32.9845 53.7643C32.387 54.8068 32.387 56.0874 32.9849 57.1294C33.5823 58.1718 34.6879 58.8205 35.8906 58.8339C37.0926 58.8194 38.1973 58.1707 38.7941 57.1286C39.3911 56.0869 39.3911 54.8072 38.7941 53.7651C38.1974 52.7231 37.0926 52.0744 35.8902 52.0599H35.8906ZM61.6503 52.0599H61.65C60.4472 52.0736 59.3416 52.7218 58.7442 53.7643C58.1467 54.8068 58.1467 56.0874 58.7442 57.1294C59.3417 58.1718 60.4472 58.8205 61.65 58.8339C62.8523 58.8194 63.9567 58.1707 64.5538 57.1286C65.1509 56.0869 65.1509 54.8072 64.5538 53.7651C63.9567 52.7231 62.852 52.0744 61.65 52.0599H61.6503Z" fill="#878787"/>
</svg>
