<svg width="41" height="45" viewBox="0 0 41 45" fill="none" xmlns="http://www.w3.org/2000/svg">
<path d="M26.0105 0C24.2949 0.442934 22.488 1.48508 21.4441 2.70292C20.3998 3.92086 19.6481 5.52585 19.3058 7.5302C9.28466 2.84203 -0.470314 10.6402 0.0175659 22.2006C0.505088 33.763 8.84216 49.9932 20.3444 43.3549C31.9898 50.1782 39.4328 34.2148 40.8389 24.0443C42.2455 13.8739 34.3186 2.27132 21.9172 7.70252C22.21 6.2837 22.6672 5.3337 23.4292 4.43737C24.1908 3.54104 25.4748 2.82533 27.0027 2.21882C26.9212 1.15856 26.5447 0.409818 26.0105 0ZM16.4501 17.982C18.196 17.982 19.7073 19.3383 20.3445 20.8879C20.9817 19.3384 22.4777 17.982 24.2236 17.982C26.4017 17.982 28.4971 19.8255 28.5148 22.2003C28.5537 27.3004 23.1745 27.8326 20.3445 33.7458C17.5141 27.8324 12.12 27.3002 12.1585 22.2003C12.1766 19.8255 14.2723 17.982 16.4501 17.982Z" fill="#878787"/>
</svg>
