<svg width="53" height="41" viewBox="0 0 53 41" fill="none" xmlns="http://www.w3.org/2000/svg">
<path d="M36.0796 6.15C36.0796 3.95317 34.9855 1.92264 33.2097 0.824124C31.4335 -0.274708 29.2457 -0.274708 27.4695 0.824124C25.6938 1.92254 24.5996 3.95306 24.5996 6.15C24.5996 8.34725 25.6937 10.3774 27.4695 11.4762C29.2457 12.5746 31.4335 12.5746 33.2097 11.4762C34.9854 10.3774 36.0796 8.34725 36.0796 6.15Z" fill="#878787"/>
<path d="M49.4667 41H8.67831C6.43776 41 4.28424 40.1422 2.66811 38.6064C1.05198 37.0703 0.0987263 34.9754 0.00718538 32.7593C-0.0839076 30.5437 0.693977 28.3788 2.17829 26.7177L14.456 12.9794C15.627 11.6687 17.2587 10.8496 19.0182 10.689C20.7782 10.5285 22.5337 11.0383 23.9269 12.1144L43.2661 27.0525C43.9928 27.6212 44.3592 28.5293 44.2289 29.437C44.0987 30.3447 43.491 31.1155 42.6332 31.4611C41.7758 31.8068 40.7969 31.6755 40.063 31.1163L27.2984 21.2569C26.9504 20.9875 26.5117 20.8598 26.0718 20.8997C25.6319 20.9397 25.2236 21.1438 24.9308 21.4712L14.131 33.5562C13.9049 33.8093 13.8497 34.17 13.99 34.4781C14.1302 34.7862 14.4398 34.9843 14.781 34.9843H49.4664C50.5459 34.9926 51.5399 35.5677 52.0773 36.4943C52.6142 37.4214 52.6142 38.5608 52.0773 39.4874C51.5399 40.4145 50.5458 40.9891 49.4664 40.9974L49.4667 41Z" fill="#878787"/>
</svg>
