<svg width="24" height="28" viewBox="0 0 24 28" fill="none" xmlns="http://www.w3.org/2000/svg">
<g clip-path="url(#clip0_604_965)">
<path d="M17.5829 0.0771307H17.7839C17.9425 2.04755 17.1917 3.51746 16.2717 4.5817C15.3729 5.64067 14.1409 6.66803 12.1477 6.50998C12.0155 4.57117 12.7716 3.20662 13.6862 2.14238C14.5375 1.15191 16.0919 0.272065 17.5829 0.0718622V0.0771307Z" fill="black"/>
<path d="M23.6155 20.5716V20.6243C23.055 22.3155 22.2567 23.7643 21.2838 25.1078C20.3956 26.3301 19.3064 27.9686 17.3554 27.9686C15.674 27.9686 14.5584 26.8885 12.8295 26.8622C11.0054 26.8306 10.0008 27.7631 8.33536 28.0002H7.76434C6.5377 27.8211 5.55428 26.8569 4.82992 25.9876C2.71503 23.4166 1.07599 20.0922 0.769325 15.8405V14.5919C0.896219 11.5467 2.38193 9.07573 4.35407 7.87451C5.39566 7.23702 6.8285 6.69436 8.41996 6.93671C9.10201 7.04208 9.79993 7.2739 10.4132 7.50571C10.9948 7.72699 11.7192 8.12213 12.4065 8.10105C12.8718 8.08525 13.3318 7.84817 13.8024 7.6743C15.177 7.17907 16.52 6.61534 18.2965 6.87876C20.4273 7.20014 21.9447 8.1432 22.8753 9.60258C21.0723 10.7458 19.6448 12.4686 19.888 15.4137C20.1048 18.0901 21.6645 19.6549 23.6155 20.5769V20.5716Z" fill="black"/>
</g>
<defs>
<clipPath id="clip0_604_965">
<rect width="22.8462" height="27.9231" fill="white" transform="translate(0.769531 0.0771484)"/>
</clipPath>
</defs>
</svg>
