<svg width="12" height="12" viewBox="0 0 12 12" fill="none" xmlns="http://www.w3.org/2000/svg">
<path d="M11.3433 3.84283C12.2189 2.96373 12.2189 1.53829 11.3433 0.659205C10.4674 -0.219735 9.04735 -0.219735 8.17225 0.659205L1.82931 7.02599C1.75818 7.09765 1.69328 7.17285 1.63362 7.25059C1.48829 7.41974 1.37149 7.60411 1.28349 7.79964L1.28322 7.79873C1.28322 7.79873 1.28151 7.80254 1.27871 7.8068L0.0377811 11.5028C0.038413 11.5043 0.0389545 11.505 0.0398572 11.5066C-0.0278402 11.6337 -0.00960618 11.795 0.0969045 11.9025C0.202782 12.0085 0.361552 12.0277 0.487648 11.9619C0.491439 11.9631 0.494779 11.964 0.497848 11.9652L4.22297 10.7627C4.4211 10.6734 4.60822 10.5536 4.77898 10.4042C4.8557 10.3449 4.93053 10.2795 5.00039 10.2092L11.3433 3.84283Z" fill="#29ABE2"/>
</svg>
