<svg width="13" height="13" viewBox="0 0 13 13" fill="none" xmlns="http://www.w3.org/2000/svg">
<path d="M6.5 13C2.9148 13 0 10.0852 0 6.5C0 2.9148 2.9148 0 6.5 0C10.0852 0 13 2.9148 13 6.5C13 10.0852 10.0852 13 6.5 13ZM6.5 1.2492C3.60599 1.2492 1.2492 3.60596 1.2492 6.5C1.2492 9.39404 3.60596 11.7508 6.5 11.7508C9.39404 11.7508 11.7508 9.39404 11.7508 6.5C11.7508 3.60596 9.39404 1.2492 6.5 1.2492Z" fill="black"/>
<path d="M6.43808 7.85332C6.09243 7.85332 5.81348 7.57437 5.81348 7.22872V3.71847C5.81348 3.37283 6.09243 3.09387 6.43808 3.09387C6.78372 3.09387 7.06268 3.37283 7.06268 3.71847V7.22872C7.06268 7.57436 6.78372 7.85332 6.43808 7.85332Z" fill="black"/>
<path d="M7.12412 8.84435C7.12412 9.22381 6.81646 9.53146 6.437 9.53146C6.05754 9.53146 5.75 9.22381 5.75 8.84435C5.75 8.46489 6.05754 8.15723 6.437 8.15723C6.81646 8.15723 7.12412 8.46489 7.12412 8.84435Z" fill="black"/>
</svg>
