<svg width="12" height="13" viewBox="0 0 12 13" fill="none" xmlns="http://www.w3.org/2000/svg">
<path d="M5.93782 0.410767C4.36306 0.410767 2.85261 1.05423 1.73915 2.19951C0.625624 3.34489 0 4.89824 0 6.51791C0 8.13758 0.625624 9.69109 1.73915 10.8363C2.85278 11.9816 4.36306 12.6251 5.93782 12.6251C7.51258 12.6251 9.02303 11.9816 10.1365 10.8363C11.25 9.69093 11.8756 8.13758 11.8756 6.51791C11.8756 4.89824 11.25 3.34473 10.1365 2.19951C9.02287 1.05423 7.51258 0.410767 5.93782 0.410767ZM9.17665 7.07312H6.47755V9.84918H5.398V7.07312H2.69891V5.96279H5.398V3.18673H6.47764V5.96279H9.17674L9.17665 7.07312Z" fill="#29ABE2"/>
</svg>
