<svg width="45" height="45" viewBox="0 0 45 45" fill="none" xmlns="http://www.w3.org/2000/svg">
<path d="M41.8705 5.89463C39.0103 5.49146 36.1835 4.8754 33.413 4.05171C30.2175 3.09797 27.1079 1.87115 24.1186 0.384209C23.1025 -0.12807 21.9077 -0.12807 20.8915 0.384209C17.9021 1.87178 14.7924 3.0987 11.5971 4.05171C8.82659 4.8754 5.99977 5.49149 3.13959 5.89463C2.26855 6.02181 1.47176 6.46182 0.895365 7.13387C0.318987 7.80629 0.00118959 8.66616 0.000140129 9.55569V17.3855C-0.0159776 22.4017 1.35861 27.322 3.96746 31.5883C6.57675 35.8548 10.316 39.2962 14.7616 41.523L20.873 44.6105C21.9045 45.1298 23.1169 45.1298 24.1484 44.6105L30.2492 41.523C34.6911 39.296 38.4268 35.8556 41.0336 31.5919C43.6407 27.3278 45.0146 22.4109 44.9999 17.3982V9.56839C45.0023 8.67809 44.6873 7.81653 44.1127 7.14195C43.5381 6.46705 42.7424 6.02423 41.871 5.89453L41.8705 5.89463ZM27.7369 23.0313H24.0743V26.7349C24.0743 27.3018 23.7751 27.8257 23.2895 28.1091C22.8039 28.3929 22.2054 28.3929 21.7198 28.1091C21.2341 27.8257 20.9349 27.3018 20.9349 26.7349V23.0313H17.2724C16.7114 23.0313 16.1933 22.7288 15.913 22.2378C15.6326 21.7467 15.6326 21.1416 15.913 20.6506C16.1933 20.1596 16.7115 19.857 17.2724 19.857H20.9349V16.1538C20.9349 15.5866 21.2341 15.0627 21.7198 14.7792C22.2054 14.4958 22.8039 14.4958 23.2895 14.7792C23.7751 15.0627 24.0743 15.5866 24.0743 16.1538V19.857H27.7369C28.2978 19.857 28.816 20.1596 29.0963 20.6506C29.3766 21.1416 29.3766 21.7468 29.0963 22.2378C28.816 22.7288 28.2978 23.0313 27.7369 23.0313Z" fill="#00A45B"/>
</svg>
