<svg width="17" height="17" viewBox="0 0 17 17" fill="none" xmlns="http://www.w3.org/2000/svg">
<path d="M0 8.5C0 3.80552 3.80552 0 8.5 0C13.1945 0 17 3.80552 17 8.5C17 13.1945 13.1945 17 8.5 17C3.80552 17 0 13.1945 0 8.5ZM12.8259 8.98678C13.104 8.71226 13.1028 8.26737 12.8219 7.99167L9.47967 4.70931C8.94528 4.17588 8.14385 4.97572 8.67824 5.50897L10.9119 7.73597C11.0218 7.84566 10.9833 7.93459 10.8273 7.93459H4.66483C4.35118 7.93459 4.0968 8.18559 4.0968 8.50004C4.0968 8.81251 4.35056 9.0657 4.66483 9.0657H10.8273C10.9841 9.0657 11.0214 9.15483 10.9119 9.26413L8.67824 11.4913C8.14385 12.0242 8.94525 12.8242 9.47967 12.291L12.8259 8.98678Z" fill="#BEBEBE"/>
</svg>
