<svg width="136" height="126" viewBox="0 0 136 126" fill="none" xmlns="http://www.w3.org/2000/svg">
<path d="M17.573 124.73V114.283H4.87352V124.73H0V98.8909H4.87352V109.781H17.573V98.8909H22.4085V124.733H17.573V124.73Z" fill="#22B573"/>
<path d="M30.4939 117.2C30.7891 119.452 32.7461 121.076 35.9199 121.076C37.5817 121.076 39.7601 120.45 40.7935 119.378L43.672 122.221C41.753 124.214 38.615 125.173 35.8461 125.173C29.5702 125.173 25.8418 121.297 25.8418 115.464C25.8418 109.927 29.6061 105.941 35.5129 105.941C41.6033 105.941 45.4055 109.707 44.7054 117.2H30.4939ZM40.3865 113.471C40.0912 111.11 38.246 109.927 35.6606 109.927C33.2248 109.927 31.2299 111.107 30.5656 113.471H40.3865Z" fill="#22B573"/>
<path d="M62.6091 106.495H66.928V124.695H62.6829L62.4615 122.038C61.4281 124.178 58.5854 125.211 56.5546 125.249C51.1644 125.285 47.1787 121.964 47.1787 115.578C47.1787 109.302 51.35 106.017 56.6664 106.055C59.1021 106.055 61.4281 107.2 62.4615 109.007L62.6091 106.495ZM51.6832 115.576C51.6832 119.047 54.083 121.114 57.0734 121.114C64.1612 121.114 64.1612 110.076 57.0734 110.076C54.083 110.076 51.6832 112.105 51.6832 115.576Z" fill="#22B573"/>
<path d="M75.1989 98.8909V124.695H70.7324V98.8909H75.1989Z" fill="#22B573"/>
<path d="M82.9871 117.2C83.2823 119.452 85.2393 121.076 88.4131 121.076C90.0749 121.076 92.2533 120.45 93.2866 119.378L96.1652 122.221C94.2461 124.214 91.1082 125.173 88.3393 125.173C82.0634 125.173 78.335 121.297 78.335 115.464C78.335 109.927 82.0992 105.941 88.0061 105.941C94.0964 105.941 97.8987 109.707 97.1985 117.2H82.9871ZM92.8817 113.471C92.5865 111.11 90.7413 109.927 88.1558 109.927C85.7201 109.927 83.7251 111.107 83.0609 113.471H92.8817Z" fill="#29ABE2"/>
<path d="M114.771 106.495V108.636L106.391 120.264H114.845V124.695H99.5244V122.811L108.236 110.593H100.189V106.495H114.771Z" fill="#29ABE2"/>
<path d="M121.379 117.2C121.674 119.452 123.631 121.076 126.805 121.076C128.466 121.076 130.645 120.45 131.678 119.378L134.557 122.221C132.638 124.214 129.5 125.173 126.731 125.173C120.455 125.173 116.727 121.297 116.727 115.464C116.727 109.927 120.491 105.941 126.398 105.941C132.488 105.941 136.29 109.707 135.59 117.2H121.379ZM131.273 113.471C130.978 111.11 129.133 109.927 126.547 109.927C124.112 109.927 122.117 111.107 121.452 113.471H131.273Z" fill="#29ABE2"/>
<path d="M107.863 47.4732C106.416 39.9741 102.637 32.958 97.2089 27.591C91.4328 21.8339 83.7924 17.9747 75.7219 16.7917C75.3697 16.8254 75.3845 16.4015 75.2706 16.1759C73.8324 12.148 70.7704 8.9257 67.3625 6.44993C66.6982 5.93959 65.8104 5.82149 65.0048 5.97754C61.3122 3.70633 57.2358 2.08041 53.0266 1.06395C48.8553 0.0685775 44.4879 -0.355299 40.2323 0.349053C38.1846 0.68225 36.1095 1.2432 34.4034 2.46633C32.9989 3.4617 32.0183 4.95687 31.4511 6.56591C30.6307 8.86665 30.3798 11.3108 30.0297 13.7107C29.3612 14.1746 28.8234 14.8726 28.6737 15.6845C28.4333 16.8655 29.009 18.1498 30.0466 18.7592C31.0314 19.3771 32.3789 19.3244 33.3153 18.6327C34.1651 18.0359 34.6523 16.9688 34.5342 15.9334C34.4815 15.3028 34.1525 14.7356 33.7392 14.2737C33.9332 12.7764 34.1272 11.2771 34.4203 9.79665C34.6945 8.4955 35.0614 7.14373 35.9471 6.11251C36.7611 5.16142 37.9568 4.65108 39.1462 4.35585C43.4419 3.32041 47.9527 3.68734 52.2084 4.73122C55.96 5.65911 59.6041 7.08469 62.9107 9.08809C63.0394 9.80298 63.4189 10.4715 64.0052 10.9059C66.5738 12.7617 68.9863 15.1046 70.0618 18.154C70.6944 19.9233 70.6944 21.8845 70.1588 23.6791C69.4797 25.9799 68.1174 28.017 66.5421 29.8032C66.1457 30.2714 65.6543 30.6678 65.3844 31.2267C65.1651 31.6463 65.087 32.1208 65.0744 32.5848C62.2865 35.0732 59.1043 37.0956 55.7259 38.6667C52.143 40.3221 48.2859 41.5073 44.3171 41.6043C42.7734 41.6464 41.1391 41.6043 39.7557 40.8345C38.5705 40.1724 37.8261 38.9682 37.2778 37.7662C36.5608 36.1677 36.042 34.4869 35.4789 32.8273C36.1221 31.8699 36.12 30.5476 35.4283 29.6176C34.5806 28.3544 32.7121 27.9664 31.4363 28.7994C30.346 29.4574 29.7914 30.8576 30.1394 32.0829C30.3777 32.9939 31.1031 33.7109 31.9656 34.0525C32.5013 35.6468 33.0221 37.2453 33.6801 38.7974C34.4794 40.6658 35.5675 42.5237 37.2947 43.6751C39.201 44.9658 41.5693 45.2884 43.8236 45.2905C48.5179 45.3074 53.1173 43.9598 57.356 42.0134C61.1119 40.2757 64.6421 38.0192 67.721 35.2461C68.2166 35.2314 68.7269 35.1618 69.174 34.9277C69.8214 34.6135 70.2431 34.0019 70.7261 33.4937C73.5477 30.3072 75.762 26.3742 76.0973 22.0638C78.959 22.5572 81.7574 23.4219 84.3977 24.6323C91.2198 27.7365 96.9474 33.1752 100.381 39.8434C101.612 42.2137 102.548 44.7338 103.177 47.3298C103.177 47.3298 103.179 47.3424 103.187 47.3635C103.19 47.3698 103.192 47.3804 103.194 47.3909C103.512 48.7343 103.75 50.1008 103.907 51.4736C103.913 51.5179 103.917 51.5643 103.921 51.6128C103.963 51.9861 103.997 52.3572 104.023 52.7326H104.01C104.094 54.0211 104.122 55.5078 104.035 57.1612H104.071C104.012 58.1376 103.915 59.1118 103.776 60.0777C103.776 60.084 103.774 60.0903 103.774 60.0967C103.738 60.3476 103.698 60.5986 103.658 60.8453C102.468 68.0175 98.839 74.7383 93.5416 79.7089C88.6976 84.3019 82.4618 87.385 75.8843 88.4817C75.878 88.4838 75.8674 88.4859 75.8569 88.488C73.2778 89.0616 70.0049 88.9772 68.3747 88.8823C68.3178 88.8802 68.2651 88.8781 68.2123 88.8718C68.1449 88.8676 68.0795 88.8612 68.0099 88.8591C67.9677 88.857 67.9319 88.8549 67.896 88.8528C67.8475 88.8486 67.8011 88.8423 67.7526 88.8401C67.6725 88.8359 67.5923 88.8275 67.5122 88.8212C67.5101 88.8233 67.508 88.8212 67.5017 88.8212C67.4742 88.8191 67.4489 88.817 67.4215 88.8148C67.3772 88.8127 67.3562 88.8106 67.3562 88.8106C63.3768 88.469 59.4543 87.4336 55.844 85.7275C54.0177 84.8776 52.2758 83.8612 50.6373 82.6929L47.2146 86.0734C52.9064 90.1793 59.7327 92.6993 66.7362 93.2392C74.5747 93.8824 82.5988 92.0962 89.3893 88.1189C96.1545 84.1944 101.682 78.1736 104.982 71.0837C108.411 63.7808 109.413 55.3834 107.863 47.4732ZM39.5195 69.3524C40.9303 68.4413 42.048 67.0812 42.649 65.5143C43.3744 63.6522 43.3597 61.5117 42.6068 59.6601C41.9236 57.952 40.6224 56.5011 39.0049 55.6217C37.3685 54.7234 35.4157 54.4323 33.5873 54.7908C31.5649 55.1789 29.7197 56.383 28.5472 58.0722C27.5181 59.5294 27.0056 61.343 27.1216 63.125C27.2355 65.2254 28.2372 67.2499 29.8188 68.6333C31.1263 69.7952 32.8197 70.489 34.5595 70.624C36.6578 75.2782 39.7029 79.4938 43.4356 82.9734L46.8667 79.5802C43.8089 76.6679 41.2909 73.1905 39.5195 69.3524ZM37.8303 66.1237C36.527 67.1086 34.6839 67.2899 33.2162 66.5771C31.4574 65.7737 30.3798 63.7365 30.7277 61.8301C31.0082 59.9891 32.5582 58.4412 34.395 58.1587C36.4996 57.758 38.7603 59.1034 39.3993 61.1532C40.0214 62.9204 39.3487 65.0292 37.8303 66.1237Z" fill="#22B573"/>
<path d="M43.29 86.531C43.7603 87.0076 44.5258 87.0118 45.0024 86.5415L61.7128 70.0251L63.4421 68.317C62.8115 67.8087 62.2358 67.2415 61.7128 66.6215L59.9878 68.3275L43.3027 84.8186C42.8239 85.291 42.8197 86.0565 43.29 86.531Z" fill="#29ABE2"/>
<path d="M49.8828 79.1438C50.0093 79.1543 50.1338 79.167 50.2603 79.1733C50.1063 79.1628 49.9819 79.1565 49.8828 79.1438Z" fill="black"/>
<path d="M103.903 51.4715C103.747 50.0881 103.506 48.7153 103.182 47.3635C103.251 47.6039 103.658 49.078 103.903 51.4715Z" fill="#22B573"/>
<path d="M74.1091 55.9548V50.5984H68.8011V55.9548H63.4404V58.7005V61.267H65.7897H68.8011V66.6234H74.1091V61.267H79.4697V55.9548H74.1091Z" fill="#FF0000"/>
<path d="M84.6259 51.9397C82.7132 48.0531 79.1345 45.1471 74.8957 44.08C73.7169 43.7848 72.5043 43.6309 71.2896 43.6309C63.0504 43.6309 56.3506 50.3349 56.3506 58.5699C56.3506 62.2941 57.7192 65.7083 59.9862 68.3275C60.5155 68.939 61.0934 69.5063 61.7113 70.0251C64.3051 72.2014 67.6455 73.5089 71.2896 73.5089C76.1146 73.5089 80.9101 70.953 83.6432 66.9799C86.353 63.0385 86.8697 57.8381 85.2396 53.3716C85.0582 52.8823 84.8537 52.4036 84.6259 51.9397ZM71.2896 71.0879C68.3183 71.0879 65.5894 70.0504 63.4405 68.3169C62.81 67.8087 62.2342 67.2414 61.7113 66.6214C59.8787 64.4451 58.7715 61.634 58.7715 58.5699C58.7715 51.6698 64.3853 46.0518 71.2896 46.0518C73.5629 46.0518 75.8152 46.6802 77.7595 47.8591C78.7106 48.4369 79.5837 49.1391 80.3492 49.9447C83.7803 53.5487 84.2315 59.4788 82.458 63.9537C80.9797 67.6822 77.1775 70.3035 73.2824 70.9298C72.6224 71.0352 71.956 71.0879 71.2896 71.0879Z" fill="#29ABE2"/>
</svg>
