<svg width="32" height="32" viewBox="0 0 32 32" fill="none" xmlns="http://www.w3.org/2000/svg">
<path d="M7.74031 0.000169124C3.47424 0.000169124 0 3.47207 0 7.74045V21.8164C0 26.0822 3.47191 29.5567 7.74031 29.5567H18.0929C17.7259 28.7905 17.4752 27.9656 17.347 27.0936H7.74045C6.85861 27.0936 6.03778 26.8572 5.30625 26.4732C6.63369 22.446 10.3453 19.6853 14.663 19.6853C16.1727 19.6853 17.6406 20.0357 18.9783 20.6859C20.552 18.5972 23.0253 17.2222 25.8432 17.2222C27.1781 17.2222 28.4289 17.5535 29.557 18.0928V7.74028C29.5567 3.47451 26.0848 0 21.8167 0L7.74031 0.000169124ZM14.7397 7.32174C17.4047 7.32174 19.5696 9.49146 19.5696 12.1563C19.5696 14.8164 17.4047 16.9814 14.7397 16.9814C12.0746 16.9814 9.90512 14.8163 9.90512 12.1563C9.90512 9.49118 12.0749 7.32174 14.7397 7.32174ZM25.8424 19.6848C22.4408 19.6848 19.6848 22.4409 19.6848 25.8424C19.6848 29.2439 22.4408 32 25.8424 32C29.2439 32 32 29.2439 32 25.8424C32 22.4409 29.2415 19.6848 25.8424 19.6848ZM24.6062 22.1913H27.0693V26.0444L28.7579 24.8371L30.1962 26.8384L25.8521 29.9653L21.3974 26.8434L22.8118 24.8326L24.6063 26.088L24.6062 22.1913Z" fill="#29ABE2"/>
</svg>
