<svg width="21" height="21" viewBox="0 0 21 21" fill="none" xmlns="http://www.w3.org/2000/svg">
<path d="M10.5 0C7.71531 0 5.04435 1.10631 3.07539 3.07539C1.10631 5.04464 0 7.71531 0 10.5C0 13.2847 1.10631 15.9556 3.07539 17.9246C5.04464 19.8937 7.71531 21 10.5 21C13.2847 21 15.9556 19.8937 17.9246 17.9246C19.8937 15.9554 21 13.2847 21 10.5C21 7.71531 19.8937 5.04435 17.9246 3.07539C15.9554 1.10631 13.2847 0 10.5 0ZM16.2273 11.4546H11.4544V16.2274H9.54542V11.4546H4.77255V9.54559H9.54542V4.77271H11.4546V9.54559H16.2274L16.2273 11.4546Z" fill="#BEBEBE"/>
</svg>
