<svg width="20" height="20" viewBox="0 0 20 20" fill="none" xmlns="http://www.w3.org/2000/svg">
<path d="M9.28557 0.000721398C4.16565 0.000721398 0 4.16626 0 9.28604C0 14.4058 4.16565 18.5714 9.28557 18.5714C11.5887 18.5714 13.6973 17.7264 15.3219 16.3327L18.7806 19.7913C18.9099 19.9206 19.0887 20 19.2856 20C19.68 20 20 19.68 20 19.2856C20 19.0881 19.9201 18.9094 19.7906 18.7801L16.3313 15.3215C17.7256 13.6971 18.5712 11.5891 18.5712 9.28532C18.5712 4.16554 14.4055 0 9.28563 0L9.28557 0.000721398ZM9.28557 1.4288C13.633 1.4288 17.1422 4.93801 17.1422 9.28525C17.1422 13.6326 13.6329 17.1417 9.28557 17.1417C4.93814 17.1417 1.42891 13.6325 1.42891 9.28525C1.42891 4.93794 4.93821 1.4288 9.28557 1.4288Z" fill="#29ABE2"/>
</svg>
