<svg width="16" height="19" viewBox="0 0 16 19" fill="none" xmlns="http://www.w3.org/2000/svg">
<path fill-rule="evenodd" clip-rule="evenodd" d="M0 2.85002C0 2.32535 0.425328 1.90002 0.949997 1.90002H14.25C14.7746 1.90002 15.2 2.32535 15.2 2.85002C15.2 3.37469 14.7746 3.80002 14.25 3.80002H0.949997C0.425328 3.80002 0 3.37469 0 2.85002Z" fill="#29ABE2"/>
<path fill-rule="evenodd" clip-rule="evenodd" d="M4.53869 1.26666C4.53869 0.567103 5.1058 -1.13248e-07 5.80536 0L9.39423 3.39746e-07C10.0938 3.9637e-07 10.6609 0.567105 10.6609 1.26666C10.6609 1.61644 10.9444 1.9 11.2942 1.9H11.3998V3.79999H11.2942C10.1138 3.79999 9.12194 2.99264 8.84071 1.9L6.35888 1.89999C6.07765 2.99264 5.08579 3.79999 3.90536 3.79999H3.7998V1.89999L3.90536 1.89999C4.25514 1.89999 4.53869 1.61644 4.53869 1.26666Z" fill="#29ABE2"/>
<path fill-rule="evenodd" clip-rule="evenodd" d="M1.82135 5.70335C2.34421 5.65978 2.80339 6.04831 2.84696 6.57117L3.57918 15.3578C3.66125 16.3426 4.48445 17.1 5.47261 17.1H9.72784C10.716 17.1 11.5392 16.3426 11.6213 15.3578L12.3535 6.57117C12.3971 6.04831 12.8562 5.65978 13.3791 5.70335C13.902 5.74692 14.2905 6.2061 14.2469 6.72896L13.5147 15.5156C13.3506 17.4851 11.7042 19 9.72784 19H5.47261C3.49628 19 1.84988 17.4851 1.68575 15.5156L0.95353 6.72896C0.909958 6.2061 1.2985 5.74692 1.82135 5.70335Z" fill="#29ABE2"/>
</svg>
