<svg width="22" height="19" viewBox="0 0 22 19" fill="none" xmlns="http://www.w3.org/2000/svg">
<path d="M20.0741 15.4482H1.33816C0.859969 15.4482 0.418212 15.6936 0.179234 16.0918C-0.0597446 16.49 -0.0597446 16.9808 0.179234 17.3792C0.418212 17.7775 0.860023 18.0229 1.33816 18.0229H20.0741C20.5522 18.0229 20.994 17.7775 21.233 17.3792C21.472 16.9808 21.472 16.49 21.233 16.0918C20.994 15.6935 20.5522 15.4482 20.0741 15.4482Z" fill="#20B472"/>
<path d="M2.67632 9.01147C2.32135 9.01147 1.98083 9.14707 1.72996 9.38862C1.47885 9.62995 1.33789 9.95749 1.33789 10.2987V11.5862C1.33789 12.0462 1.59297 12.4711 2.00697 12.701C2.42122 12.9309 2.9314 12.9309 3.34537 12.701C3.75938 12.4711 4.01445 12.0461 4.01445 11.5862V10.2987C4.01445 9.9575 3.87349 9.62994 3.62237 9.38862C3.37149 9.14707 3.031 9.01147 2.67626 9.01147H2.67632Z" fill="#20B472"/>
<path d="M6.69141 5.14942V11.5861C6.69141 12.0461 6.94649 12.471 7.36049 12.7009C7.77449 12.9308 8.28468 12.9308 8.69865 12.7009C9.11289 12.471 9.36796 12.046 9.36796 11.5861V5.14942C9.36796 4.68943 9.11288 4.26449 8.69865 4.03461C8.28463 3.8045 7.77446 3.8045 7.36049 4.03461C6.94647 4.26449 6.69141 4.68949 6.69141 5.14942Z" fill="#20B472"/>
<path d="M13.3823 12.8735C13.7373 12.8735 14.0776 12.7379 14.3287 12.4966C14.5795 12.255 14.7205 11.9277 14.7205 11.5862V7.72428C14.7205 7.26429 14.4654 6.83935 14.0514 6.60924C13.6374 6.37936 13.1272 6.37936 12.7133 6.60924C12.299 6.83935 12.0439 7.26429 12.0439 7.72428V11.5862C12.0439 11.9277 12.1851 12.255 12.436 12.4966C12.6869 12.7379 13.0274 12.8735 13.3824 12.8735H13.3823Z" fill="#20B472"/>
<path d="M17.3975 1.28745V11.5862C17.3975 12.0461 17.6525 12.4711 18.0665 12.701C18.4806 12.9309 18.9907 12.9309 19.4049 12.701C19.819 12.4711 20.074 12.0461 20.074 11.5862V1.28745C20.074 0.827466 19.8189 0.402523 19.4049 0.172411C18.9907 -0.0574705 18.4805 -0.0574705 18.0665 0.172411C17.6525 0.402517 17.3975 0.82746 17.3975 1.28745Z" fill="#20B472"/>
</svg>
