<svg width="18" height="19" viewBox="0 0 18 19" fill="none" xmlns="http://www.w3.org/2000/svg">
<path d="M6.20954 9.14891C7.45282 9.98512 9.00553 10.2196 10.4403 9.78797C11.8751 9.35651 13.0406 8.30423 13.6163 6.92091C14.1919 5.53764 14.1168 3.96916 13.4118 2.64715C12.7066 1.32497 11.4459 0.388971 9.97642 0.0963294C8.50708 -0.196303 6.98379 0.185516 5.82623 1.1365C4.6685 2.08763 3.99834 3.50777 4 5.00601C4.002 6.66849 4.83023 8.22115 6.20956 9.14886L6.20954 9.14891Z" fill="#29ABE2"/>
<path d="M13.1866 10C12.0282 11.035 10.5404 11.6056 9.00005 11.6056C7.45969 11.6056 5.97193 11.0349 4.8135 10C1.95285 11.3368 0 14.0588 0 17.4475V19H18V17.4475C18 14.0508 16.0472 11.3368 13.1865 10H13.1866Z" fill="#29ABE2"/>
</svg>
