<svg width="23" height="24" viewBox="0 0 23 24" fill="none" xmlns="http://www.w3.org/2000/svg">
<path d="M12.0474 0H14.2377V1.09513H13.1426V2.19025H10.952V5.47645H8.76172V4.381H9.85684V1.09513H12.0474V0Z" fill="#29ABE2"/>
<path d="M0 0V7.66678H7.66679V0H0ZM6.57141 6.57141H1.09537V1.09537H6.57141V6.57141Z" fill="#29ABE2"/>
<path d="M15.334 0V7.66678H23.0004V0H15.334ZM21.905 6.57141H16.4294V1.09537H21.9054V6.57141H21.905Z" fill="#29ABE2"/>
<path d="M2.19043 2.19028H5.4763V5.47615H2.19043V2.19028Z" fill="#29ABE2"/>
<path d="M17.5234 2.19028H20.8093V5.47615H17.5234V2.19028Z" fill="#29ABE2"/>
<path d="M12.0479 3.28589H13.143V4.38101H12.0479V3.28589Z" fill="#29ABE2"/>
<path d="M13.1427 4.38107H14.2379V8.76215H13.1427V6.57141H12.0476V7.66686H10.9521V5.47661H13.1427V4.38107Z" fill="#29ABE2"/>
<path d="M8.76203 6.57144H9.85716V7.6669H10.9523V8.76219H9.85716V10.9524H10.9523V9.85731H12.0477V8.76219H13.1429V12.0479H10.9523V13.143H9.85716V12.0479H8.76203V9.85731H6.57129V8.76219H8.76203V6.57144Z" fill="#29ABE2"/>
<path d="M2.19043 8.76215H4.38068V9.8576H2.19043V8.76215Z" fill="#29ABE2"/>
<path d="M14.2373 8.76215H16.428V9.85727H15.3329V10.9524H14.2373V8.76215Z" fill="#29ABE2"/>
<path d="M17.5234 8.76215H18.6189V9.8576H17.5234V8.76215Z" fill="#29ABE2"/>
<path d="M0 9.85712H2.19025V10.9522H3.28587V12.0477H2.19025V13.1428H1.09513V10.9522H0V9.85712Z" fill="#29ABE2"/>
<path d="M4.38086 9.85712H6.57111V10.9522H5.47599V12.0477H6.57111V13.1428H4.38086V9.85712Z" fill="#29ABE2"/>
<path d="M18.619 9.85712H19.7146V10.9522H20.8097V14.2379H19.7146V13.1428H17.5235V14.2379H16.4287V12.0477H18.619V9.85712Z" fill="#29ABE2"/>
<path d="M6.57129 10.9521H7.66642V12.0475H6.57129V10.9521Z" fill="#29ABE2"/>
<path d="M21.9043 10.9521H22.9998V12.0475H21.9043V10.9521Z" fill="#29ABE2"/>
<path d="M7.66674 12.0479H8.76203V14.2381H6.57129V13.143H7.66674V12.0479Z" fill="#29ABE2"/>
<path d="M13.1426 12.0479H14.238V13.143H13.1426V12.0479Z" fill="#29ABE2"/>
<path d="M0 13.1428H1.09513V14.2383H0V13.1428Z" fill="#29ABE2"/>
<path d="M2.19043 13.1428H3.28556V14.2383H2.19043V13.1428Z" fill="#29ABE2"/>
<path d="M10.952 13.1428H13.1426V14.2379H12.0474V16.4287H10.952V18.6189H9.85684V16.4287H8.76172V14.2379H9.85684V15.3332H10.952V13.1428Z" fill="#29ABE2"/>
<path d="M14.2373 13.1428H15.3328V14.2383H14.2373V13.1428Z" fill="#29ABE2"/>
<path d="M21.9043 13.1428H22.9998V14.2383H21.9043V13.1428Z" fill="#29ABE2"/>
<path d="M13.1426 14.2378H14.238V16.428H13.1426V14.2378Z" fill="#29ABE2"/>
<path d="M18.6191 14.2378H19.7146V16.428H18.6191V14.2378Z" fill="#29ABE2"/>
<path d="M20.8096 14.2378H21.9047V15.3329H20.8096V14.2378Z" fill="#29ABE2"/>
<path d="M16.4281 15.3332H17.5229V16.4286H18.6184V18.6189H21.9039V19.714H17.5228V21.9044H16.428V19.714H15.3329V20.8096H14.2373V21.9044H15.3329V22.9999H9.85645V21.9044H13.1422V19.714H14.2373V16.4286H16.428L16.4281 15.3332Z" fill="#29ABE2"/>
<path d="M0 15.3332V22.9999H7.66679V15.3332H0ZM6.57141 21.9046H1.09537V16.4289H6.57141V21.9046Z" fill="#29ABE2"/>
<path d="M12.0479 16.4286H13.143V17.5237H12.0479V16.4286Z" fill="#29ABE2"/>
<path d="M19.7148 16.4286H21.9048V17.5237H19.7148V16.4286Z" fill="#29ABE2"/>
<path d="M2.19043 17.5235H5.4763V20.8093H2.19043V17.5235Z" fill="#29ABE2"/>
<path d="M21.9043 17.5235H22.9998V18.6189H21.9043V17.5235Z" fill="#29ABE2"/>
<path d="M8.76172 18.6189H9.85684V19.714H10.952V20.8096H8.76172V18.6189Z" fill="#29ABE2"/>
<path d="M10.9521 18.6189H13.1424V19.714H10.9521V18.6189Z" fill="#29ABE2"/>
<path d="M19.7148 20.8096H20.81V21.9048H19.7148V20.8096Z" fill="#29ABE2"/>
<path d="M21.9043 20.8096H22.9998V21.9048H21.9043V20.8096Z" fill="#29ABE2"/>
<path d="M17.5234 22.8395H18.6189V23.935H17.5234V22.8395Z" fill="#29ABE2"/>
</svg>
