<svg width="14" height="14" viewBox="0 0 14 14" fill="none" xmlns="http://www.w3.org/2000/svg">
<path d="M13.3279 4.38348H9.61652V0.672109C9.61478 0.300366 9.31292 0 8.94141 0H5.05859C4.68707 0 4.3852 0.300344 4.38348 0.672109V4.38348H0.672109C0.300366 4.38522 0 4.68708 0 5.05859V8.94141C0 9.31294 0.300344 9.6148 0.672109 9.61652H4.38348V13.3279C4.38522 13.6996 4.68708 14 5.05859 14H8.94141C9.31294 14 9.6148 13.6997 9.61652 13.3279V9.61652H13.3279C13.6996 9.61478 14 9.31292 14 8.94141V5.05859C14 4.68707 13.6997 4.3852 13.3279 4.38348Z" fill="#29ABE2"/>
</svg>
