<svg width="65" height="26" viewBox="0 0 65 26" fill="none" xmlns="http://www.w3.org/2000/svg">
<rect width="65" height="21" fill="#29ABE2"/>
<path d="M10.955 11.0329H10.2676C10.2091 11.5228 10.0555 11.8958 9.79228 12.1517C9.52902 12.4077 9.1707 12.532 8.73194 12.532C8.1908 12.532 7.75935 12.3419 7.45221 11.9616C7.13777 11.5813 6.9842 11.0621 6.9842 10.3967C6.9842 9.79703 7.13045 9.29245 7.42296 8.88294C7.71547 8.47343 8.15423 8.26867 8.73194 8.26867C9.11951 8.26867 9.44127 8.37105 9.70453 8.56118C9.96779 8.75131 10.1433 9.02188 10.2164 9.35827H10.9038C10.8599 8.83175 10.6259 8.42224 10.2018 8.12242C9.78497 7.82991 9.30233 7.67634 8.75388 7.67634C7.97873 7.67634 7.37909 7.9396 6.94032 8.4588C6.50156 8.97801 6.28949 9.62884 6.28949 10.404C6.28949 11.2376 6.50156 11.9031 6.94032 12.393C7.37177 12.883 7.95679 13.1243 8.69537 13.1243C9.34621 13.1243 9.87272 12.9415 10.2676 12.5759C10.6625 12.2102 10.8965 11.691 10.955 11.0329ZM14.0167 7.66903C13.2562 7.66903 12.6565 7.91035 12.2031 8.39299C11.7497 8.87563 11.5304 9.52646 11.5304 10.3382C11.5304 10.7257 11.5816 11.0841 11.6839 11.4131C11.7863 11.7495 11.9399 12.042 12.1446 12.298C12.3494 12.5612 12.6126 12.7587 12.9344 12.9049C13.2562 13.0512 13.6145 13.1243 14.024 13.1243C14.8138 13.1243 15.428 12.8684 15.8668 12.3419C16.2983 11.8227 16.5176 11.1572 16.5176 10.3528C16.5176 9.55571 16.2983 8.91219 15.8595 8.41493C15.4207 7.91766 14.8065 7.66903 14.0167 7.66903ZM14.0167 8.26867C14.5651 8.26867 15.0039 8.46612 15.333 8.84638C15.662 9.23395 15.8302 9.74584 15.8302 10.3894C15.8302 11.0402 15.662 11.5594 15.3403 11.947C15.0112 12.3419 14.5725 12.532 14.024 12.532C13.4755 12.532 13.0368 12.3419 12.7077 11.9543C12.3786 11.5667 12.2104 11.0475 12.2104 10.3894C12.2104 9.78972 12.3713 9.29245 12.6785 8.88294C12.9856 8.47343 13.4317 8.26867 14.0167 8.26867ZM17.3861 7.79335V13H18.0443V8.65625L19.7043 13H20.3039L21.9346 8.65625V13H22.5855V7.79335H21.6275L20.0114 12.2029L18.3368 7.79335H17.3861ZM24.4655 7.79335H23.7781V13H24.4655V7.79335ZM25.6121 7.79335V13H26.2702V8.82444L29.0052 13H29.7803V7.79335H29.1149V12.0201L26.3653 7.79335H25.6121ZM35.438 10.2431H33.1565V10.8062H34.8238C34.8091 11.3327 34.6629 11.7568 34.385 12.0786C34.1071 12.4004 33.7122 12.5539 33.1857 12.5539C32.6226 12.5539 32.1766 12.3638 31.8475 11.9762C31.5111 11.596 31.3502 11.0768 31.3502 10.4186C31.3502 9.76047 31.5111 9.23395 31.8475 8.84638C32.1766 8.4588 32.6226 8.26136 33.1857 8.26136C33.5879 8.26136 33.9243 8.37105 34.2022 8.57581C34.4801 8.78056 34.6409 9.05845 34.6994 9.39483H35.3722C35.343 9.03651 35.2186 8.72206 34.9993 8.4588C34.7799 8.19555 34.5093 7.9981 34.2022 7.87379C33.8877 7.74947 33.5514 7.69097 33.193 7.69097C32.4033 7.69097 31.789 7.94691 31.3356 8.47343C30.8822 8.99263 30.6628 9.65078 30.6628 10.4479C30.6628 11.2449 30.8895 11.8885 31.3429 12.3857C31.7963 12.883 32.3959 13.1316 33.1345 13.1316C33.8365 13.1316 34.3996 12.8684 34.8165 12.3565L34.992 13.0073H35.4307L35.438 10.2431ZM42.1885 9.3217C42.1665 8.78056 41.9837 8.37836 41.64 8.10048C41.3036 7.82991 40.8429 7.69097 40.2725 7.69097C39.7533 7.69097 39.3073 7.81528 38.9416 8.06392C38.576 8.31255 38.3932 8.67819 38.3932 9.17545C38.3932 9.71659 38.6418 10.0895 39.1537 10.3089C39.3146 10.382 39.6656 10.4844 40.2067 10.6014C40.2213 10.6087 40.2433 10.6161 40.2799 10.6234C40.5139 10.6746 40.7113 10.7257 40.8576 10.7696C41.0038 10.8135 41.1501 10.8647 41.2963 10.9378C41.4426 11.0109 41.5449 11.0987 41.6181 11.2084C41.6839 11.3181 41.7205 11.4497 41.7205 11.6106C41.7205 11.947 41.5888 12.1883 41.3402 12.3345C41.0842 12.4808 40.7771 12.5612 40.4188 12.5612C39.9654 12.5612 39.5998 12.4589 39.3146 12.2541C39.0367 12.0493 38.8831 11.7276 38.8685 11.2815H38.203C38.203 11.8885 38.4005 12.3492 38.7954 12.6563C39.1903 12.9634 39.7095 13.117 40.3603 13.117C40.7186 13.117 41.0404 13.0731 41.3329 12.9707C41.6254 12.8757 41.874 12.7075 42.0788 12.4589C42.2835 12.2102 42.3859 11.9031 42.3859 11.5375C42.3859 11.3327 42.3493 11.1426 42.2616 10.9744C42.1738 10.8135 42.0788 10.6819 41.9618 10.5795C41.8448 10.4771 41.6912 10.3894 41.4938 10.3016C41.3036 10.2212 41.1354 10.1627 40.9892 10.1261C40.8502 10.0895 40.6747 10.0457 40.4554 10.0018C40.2799 9.96522 40.1555 9.93597 40.0678 9.92135C39.9873 9.90672 39.8777 9.87747 39.7387 9.83359C39.6071 9.79703 39.5047 9.76047 39.4389 9.7239C39.3804 9.68003 39.3146 9.63615 39.2414 9.57765C39.1683 9.51915 39.1171 9.46065 39.0879 9.38752C39.0586 9.31439 39.044 9.22664 39.044 9.13157C39.044 8.85369 39.1464 8.64162 39.3511 8.49537C39.5559 8.3418 39.8484 8.26867 40.2213 8.26867C41.0111 8.26867 41.4426 8.61968 41.5157 9.32902L42.1885 9.3217ZM45.4385 7.66903C44.678 7.66903 44.0783 7.91035 43.625 8.39299C43.1716 8.87563 42.9522 9.52646 42.9522 10.3382C42.9522 10.7257 43.0034 11.0841 43.1058 11.4131C43.2081 11.7495 43.3617 12.042 43.5665 12.298C43.7712 12.5612 44.0345 12.7587 44.3562 12.9049C44.678 13.0512 45.0363 13.1243 45.4458 13.1243C46.2356 13.1243 46.8499 12.8684 47.2886 12.3419C47.7201 11.8227 47.9395 11.1572 47.9395 10.3528C47.9395 9.55571 47.7201 8.91219 47.2813 8.41493C46.8426 7.91766 46.2283 7.66903 45.4385 7.66903ZM45.4385 8.26867C45.987 8.26867 46.4257 8.46612 46.7548 8.84638C47.0839 9.23395 47.2521 9.74584 47.2521 10.3894C47.2521 11.0402 47.0839 11.5594 46.7621 11.947C46.433 12.3419 45.9943 12.532 45.4458 12.532C44.8974 12.532 44.4586 12.3419 44.1295 11.9543C43.8005 11.5667 43.6323 11.0475 43.6323 10.3894C43.6323 9.78972 43.7932 9.29245 44.1003 8.88294C44.4074 8.47343 44.8535 8.26867 45.4385 8.26867ZM50.9945 7.66903C50.2339 7.66903 49.6343 7.91035 49.1809 8.39299C48.7275 8.87563 48.5081 9.52646 48.5081 10.3382C48.5081 10.7257 48.5593 11.0841 48.6617 11.4131C48.7641 11.7495 48.9177 12.042 49.1224 12.298C49.3272 12.5612 49.5904 12.7587 49.9122 12.9049C50.2339 13.0512 50.5923 13.1243 51.0018 13.1243C51.7915 13.1243 52.4058 12.8684 52.8446 12.3419C53.276 11.8227 53.4954 11.1572 53.4954 10.3528C53.4954 9.55571 53.276 8.91219 52.8373 8.41493C52.3985 7.91766 51.7842 7.66903 50.9945 7.66903ZM50.9945 8.26867C51.5429 8.26867 51.9817 8.46612 52.3108 8.84638C52.6398 9.23395 52.808 9.74584 52.808 10.3894C52.808 11.0402 52.6398 11.5594 52.3181 11.947C51.989 12.3419 51.5502 12.532 51.0018 12.532C50.4533 12.532 50.0146 12.3419 49.6855 11.9543C49.3564 11.5667 49.1882 11.0475 49.1882 10.3894C49.1882 9.78972 49.3491 9.29245 49.6562 8.88294C49.9634 8.47343 50.4094 8.26867 50.9945 8.26867ZM54.3273 7.79335V13H54.9855V8.82444L57.7204 13H58.4956V7.79335H57.8301V12.0201L55.0806 7.79335H54.3273Z" fill="white"/>
<path d="M60 26L65 21H60V26Z" fill="#006B98"/>
</svg>
