<svg width="9" height="12" viewBox="0 0 9 12" fill="none" xmlns="http://www.w3.org/2000/svg">
<path d="M4.40449 11.9999C4.28431 11.9437 4.18349 11.8531 4.11494 11.7395C2.9988 10.1615 1.87421 8.58947 0.764142 7.00676C0.341334 6.3993 0.0853791 5.69184 0.0217015 4.95472C-0.165693 3.03467 0.873518 1.18779 2.63617 0.426003C4.34702 -0.314375 5.96294 -0.088775 7.40963 1.09565C7.84585 1.4498 8.20773 1.88657 8.4745 2.38078C8.74126 2.87505 8.90777 3.41696 8.96435 3.97562C9.10808 5.09786 8.81383 6.23227 8.14253 7.14362C7.062 8.66364 5.98075 10.1865 4.89857 11.712C4.82818 11.837 4.72132 11.9375 4.59218 12L4.40449 11.9999ZM5.9965 4.5168C5.99801 4.12072 5.84238 3.74019 5.56371 3.45842C5.28497 3.17668 4.90583 3.01672 4.50932 3.01344C4.11275 3.01017 3.73109 3.16394 3.44781 3.44109C3.16454 3.71825 3.00271 4.09616 2.99775 4.49227C2.99272 4.88827 3.14508 5.27014 3.42131 5.55431C3.69754 5.83841 4.07525 6.00172 4.47175 6.00834C4.87218 6.01319 5.25803 5.85859 5.54415 5.57867C5.83018 5.29884 5.99298 4.91675 5.9965 4.5168Z" fill="#A3A3A3"/>
</svg>
