<svg width="16" height="16" viewBox="0 0 16 16" fill="none" xmlns="http://www.w3.org/2000/svg">
<path d="M11.4789 7.49086C11.9727 7.98466 11.9727 8.78532 11.4789 9.27913C10.985 9.77294 10.1844 9.77294 9.69067 9.27913C9.19686 8.78532 9.19686 7.98466 9.69067 7.49086C10.1844 6.99717 10.985 6.99717 11.4789 7.49086Z" fill="#B5B5B5"/>
<path d="M5.14247 12.2233L5.90112 11.4647L6.54182 12.7291C6.55864 12.7629 6.57557 12.7797 6.59239 12.8135C6.77785 13.0495 7.04763 13.2181 7.35105 13.235C7.65446 13.2518 7.9412 13.1506 8.16028 12.9316L10.0485 11.0433C10.2846 10.8073 10.2846 10.4531 10.0485 10.2171L7.83995 8.00843C7.60392 7.7724 7.2498 7.7724 7.01379 8.00843C6.77776 8.24446 6.77776 8.59858 7.01379 8.83458L7.95791 9.7787L6.89572 10.8409L6.57535 10.2171C6.49103 10.0485 6.33932 9.93051 6.15386 9.89674C5.9684 9.86299 5.78295 9.9305 5.64804 10.0654L4.31618 11.3972C4.08015 11.6333 4.08015 11.9874 4.31618 12.2234C4.55233 12.4593 4.92325 12.4593 5.14246 12.2233L5.14247 12.2233Z" fill="#B5B5B5"/>
<path d="M14.2634 1.8378H12.4256V0.708107C12.4256 0.320364 12.1052 0 11.7175 0H10.8576C10.4699 0 10.1495 0.320364 10.1495 0.708107V1.82088H5.86717V0.708107C5.86717 0.320364 5.54681 0 5.15907 0H4.29925C3.91151 0 3.59115 0.320364 3.59115 0.708107V1.82088H1.75335C0.775486 1.82088 0 2.61328 0 3.57423V14.1958C0 15.1737 0.792406 15.9492 1.75335 15.9492H14.2464C15.2242 15.9492 15.9997 15.1568 15.9997 14.1958V3.57423C16.0167 2.63023 15.2242 1.8378 14.2633 1.8378H14.2634ZM14.4656 13.6564C14.4656 14.0779 14.1285 14.4151 13.707 14.4151H2.30983C1.88834 14.4151 1.55118 14.0779 1.55118 13.6564V5.9347H14.4488L14.449 13.6564H14.4656Z" fill="#B5B5B5"/>
</svg>
