<svg width="19" height="19" viewBox="0 0 19 19" fill="none" xmlns="http://www.w3.org/2000/svg">
<path d="M18.9998 3.91667V0.75H15.8332L16.8569 1.77371L15.507 3.12358C14.675 2.62472 13.7058 2.33327 12.6664 2.33327C11.5992 2.33327 10.6064 2.63969 9.76172 3.16216C10.1662 3.52479 10.5272 3.93564 10.8281 4.3909C11.38 4.098 11.9991 3.91667 12.6664 3.91667C14.849 3.91667 16.6249 5.69239 16.6249 7.87518C16.6249 10.0578 14.8492 11.8337 12.6664 11.8337C11.9989 11.8337 11.3799 11.6524 10.8281 11.3587C10.5273 11.8139 10.167 12.2256 9.76172 12.5882C10.6065 13.1097 11.5992 13.417 12.6664 13.417C15.7262 13.417 18.208 10.9351 18.208 7.87532C18.208 6.42817 17.6491 5.11552 16.7402 4.12819L17.9759 2.89242L18.9998 3.91667Z" fill="#B5B5B5"/>
<path d="M6.33321 13.3544C9.01785 12.9696 11.0833 10.6659 11.0833 7.87517C11.0833 4.81453 8.60222 2.33353 5.54164 2.33353C2.481 2.33353 0 4.81459 0 7.87517C0 10.6651 2.06544 12.9686 4.75008 13.3534L4.74994 15.0001H3.16654V16.5835H4.74994V18.1669H6.33335V16.5835H7.91675V15.0001H6.33335L6.33321 13.3544ZM5.54144 11.8335C3.35885 11.8335 1.58293 10.0578 1.58293 7.87503C1.58293 5.69244 3.35864 3.91652 5.54144 3.91652C7.72403 3.91652 9.49995 5.69224 9.49995 7.87503C9.49995 10.0578 7.72424 11.8335 5.54144 11.8335Z" fill="#B5B5B5"/>
</svg>
