<svg width="9" height="18" viewBox="0 0 9 18" fill="none" xmlns="http://www.w3.org/2000/svg">
<path d="M1.33375 18C0.987379 17.9237 0.671175 17.7426 0.426121 17.4798C0.151368 17.1768 -0.000813989 16.7778 0.000312406 16.3638V1.62726C-0.00702105 1.25183 0.114958 0.885979 0.344864 0.594026C0.574765 0.30223 0.897799 0.103204 1.25665 0.0323936C1.28317 0.0238558 1.30896 0.0130577 1.33377 0H7.69947C7.73369 0.0158204 7.76876 0.0296319 7.80458 0.0414353C8.14825 0.126562 8.45382 0.329214 8.6709 0.615989C8.88797 0.902764 9.00384 1.25672 8.99956 1.61994V16.3259V16.3261C9.00836 16.7099 8.88565 17.0847 8.65281 17.3851C8.41998 17.6855 8.09181 17.8923 7.72576 17.9694C7.70486 17.9773 7.68482 17.9876 7.66612 18L1.33375 18ZM0.520738 14.6825H8.47371V3.27757H0.520738V14.6825ZM4.50004 16.882C4.71051 16.884 4.9129 16.7992 5.06214 16.6466C5.21125 16.4941 5.29473 16.2865 5.29375 16.0703C5.28092 15.7878 5.12668 15.5322 4.88615 15.3945C4.6455 15.2571 4.35277 15.2571 4.11226 15.3945C3.87173 15.5322 3.71749 15.7878 3.70453 16.0703C3.70417 16.2866 3.78789 16.4943 3.93737 16.6467C4.08684 16.7993 4.28949 16.884 4.50006 16.882L4.50004 16.882ZM4.50004 1.61996H3.51176C3.29445 1.61996 3.17712 1.7243 3.17881 1.90611L3.17893 1.90623C3.18028 1.98973 3.21707 2.06858 3.27977 2.12181C3.34247 2.17505 3.4246 2.19765 3.50478 2.18346H5.48833C5.70564 2.18346 5.82296 2.07913 5.82127 1.89732L5.82115 1.89719C5.8198 1.8137 5.78301 1.73485 5.72031 1.68161C5.65762 1.62825 5.57548 1.60577 5.4953 1.61996H4.50004Z" fill="#B5B5B5"/>
</svg>
